<svg id="svg" xmlns="http://www.w3.org/2000/svg" xmlns:xlink="http://www.w3.org/1999/xlink" width="400" height="400" viewBox="0, 0, 400,400"><g id="svgg"><path id="path0" d="M123.333 16.176 C 96.531 18.339,76.199 29.628,63.135 49.600 C 49.920 69.803,48.922 100.712,60.881 119.400 C 61.987 121.128,62.060 120.885,61.924 115.933 C 61.789 111.011,62.063 107.991,62.968 104.400 C 63.463 102.438,71.132 78.113,71.312 77.932 C 71.356 77.888,73.527 82.986,76.137 89.260 C 83.900 107.920,85.310 109.911,95.756 116.945 C 98.957 119.101,98.778 119.164,98.583 115.964 C 98.083 107.761,99.969 95.372,102.899 87.619 C 103.909 84.946,104.000 84.493,104.002 82.152 C 104.014 61.254,121.712 46.711,140.133 52.463 C 157.567 57.906,164.465 83.376,154.159 104.247 C 152.773 107.054,152.740 106.815,154.903 109.692 C 159.249 115.473,163.214 119.604,173.597 129.174 C 178.069 133.295,182.484 137.420,183.410 138.341 C 185.380 140.302,185.127 140.375,187.329 137.217 C 198.334 121.431,205.415 100.905,205.411 84.800 C 205.400 41.464,170.592 12.361,123.333 16.176 M114.644 84.333 C 109.748 89.683,106.186 110.410,108.124 122.267 C 109.094 128.195,109.704 129.737,111.578 131.000 C 119.163 136.107,125.613 143.346,128.213 149.670 C 129.479 152.748,129.463 153.056,128.139 151.116 C 126.613 148.880,123.742 145.830,121.075 143.612 C 117.229 140.413,113.521 138.048,101.200 130.936 C 90.656 124.851,86.474 121.918,81.638 117.218 C 77.763 113.452,73.521 107.589,72.895 105.133 C 72.653 104.183,72.319 104.427,71.892 105.865 C 69.751 113.073,71.083 124.018,74.930 130.836 L 75.703 132.204 73.738 131.701 C 67.988 130.228,60.734 129.527,52.533 129.651 L 47.067 129.733 48.795 130.790 C 54.258 134.130,60.937 140.851,63.301 145.386 C 66.824 152.144,65.337 153.790,46.450 164.040 C 33.432 171.105,25.983 175.983,22.667 179.612 L 22.000 180.342 22.667 180.190 C 35.438 177.278,46.632 178.385,51.679 183.059 C 56.414 187.444,56.857 191.360,54.120 204.647 C 53.397 208.157,52.857 211.079,52.919 211.141 C 52.981 211.203,54.210 210.204,55.649 208.921 C 66.762 199.017,83.824 189.409,95.867 186.275 C 98.906 185.484,99.248 185.340,98.643 185.109 C 96.822 184.415,89.228 182.973,83.349 182.207 L 81.766 182.000 82.654 180.988 C 90.104 172.505,107.536 166.049,123.067 166.022 C 127.982 166.014,134.633 166.707,131.200 166.870 C 121.840 167.314,106.661 171.924,100.270 176.264 C 98.366 177.557,98.406 177.666,100.933 178.104 C 103.536 178.554,110.873 180.391,113.649 181.288 L 115.965 182.036 114.182 182.913 C 105.439 187.217,96.550 196.674,93.052 205.397 C 92.273 207.338,92.380 207.414,94.279 206.270 C 105.739 199.370,123.615 202.832,129.003 212.995 C 133.452 221.390,130.331 235.077,122.874 239.867 C 122.189 240.307,121.622 240.774,121.614 240.905 C 121.568 241.672,133.740 240.391,135.512 239.443 C 137.303 238.484,133.955 243.873,130.552 247.426 C 128.463 249.607,125.068 252.267,124.374 252.267 C 124.186 252.267,123.946 252.405,123.841 252.575 C 123.275 253.490,132.492 251.942,137.046 250.356 C 146.910 246.921,156.386 239.474,157.733 234.097 L 157.909 233.393 156.355 233.759 C 146.282 236.129,144.265 231.234,148.707 215.200 C 148.861 214.644,148.625 214.780,147.282 216.019 C 139.187 223.490,136.315 213.493,142.689 200.032 C 143.410 198.510,144.000 197.224,144.000 197.173 C 144.000 196.650,136.270 195.327,130.941 194.939 C 128.672 194.774,126.780 194.602,126.736 194.559 C 126.357 194.179,136.952 191.968,142.764 191.213 C 157.397 189.312,168.440 190.176,170.776 193.403 C 172.281 195.483,171.120 200.950,168.128 205.876 C 167.618 206.716,167.200 207.477,167.200 207.568 C 167.200 207.659,169.114 207.733,171.453 207.733 C 189.869 207.733,198.694 214.985,195.628 227.598 C 195.142 229.600,195.097 229.576,197.113 228.394 C 208.909 221.483,217.178 203.773,215.880 188.200 C 215.646 185.397,215.586 185.375,214.413 187.668 C 213.203 190.032,208.839 194.449,206.533 195.644 C 203.806 197.057,203.831 197.060,203.664 195.222 C 203.354 191.796,201.153 188.839,197.781 187.313 L 196.057 186.533 196.190 182.533 C 196.682 167.695,189.998 156.654,168.667 137.068 C 145.819 116.089,138.193 104.713,137.427 90.467 C 137.219 86.614,137.179 86.585,135.779 89.278 C 132.030 96.482,130.913 108.014,133.216 115.714 C 133.739 117.462,138.638 122.518,147.727 130.691 C 162.301 143.795,169.017 151.700,173.246 160.729 C 174.729 163.893,174.699 163.995,173.035 161.434 C 169.183 155.506,163.486 149.557,150.400 137.797 C 123.792 113.884,115.823 102.148,115.637 86.601 C 115.617 84.878,115.563 83.468,115.518 83.468 C 115.473 83.467,115.080 83.857,114.644 84.333 M311.333 143.117 C 302.585 144.255,294.824 148.557,281.003 159.932 C 273.217 166.340,270.993 167.793,268.895 167.841 C 265.097 167.929,266.269 163.123,271.979 155.200 C 274.067 152.301,274.086 152.200,272.345 153.211 C 255.926 162.751,237.501 185.611,231.754 203.573 C 230.544 207.357,230.716 207.397,233.712 204.025 C 252.137 183.294,288.235 166.766,309.600 169.278 L 311.333 169.482 308.933 169.667 C 279.767 171.916,245.517 194.524,219.000 229.032 C 216.708 232.015,216.748 231.809,218.333 232.399 C 222.864 234.086,224.678 235.323,234.873 243.684 C 239.020 247.084,242.500 249.863,242.606 249.858 C 242.713 249.853,244.260 246.883,246.045 243.258 C 257.447 220.100,272.555 198.693,283.094 190.765 C 296.697 180.532,317.540 178.996,330.349 187.282 C 332.661 188.778,332.494 188.763,334.014 187.603 C 344.928 179.272,373.751 173.604,388.079 176.971 C 390.556 177.553,390.538 177.445,387.694 174.651 C 372.036 159.270,349.743 150.190,330.774 151.468 C 324.144 151.915,320.742 152.645,310.952 155.721 C 303.993 157.908,302.806 158.047,301.579 156.821 C 299.027 154.268,303.541 148.998,312.333 144.266 C 313.470 143.654,314.400 143.104,314.400 143.044 C 314.400 142.917,312.523 142.963,311.333 143.117 M158.933 165.914 C 164.293 168.754,169.212 173.997,171.733 179.557 C 172.797 181.903,172.794 181.916,171.133 181.720 C 163.755 180.850,159.082 175.917,156.166 165.919 L 155.753 164.504 156.343 164.679 C 156.668 164.775,157.833 165.331,158.933 165.914 M41.578 192.318 C 24.052 206.926,12.688 226.002,10.013 245.307 C 9.494 249.052,9.428 249.004,11.577 246.428 C 19.760 236.617,23.812 238.304,20.099 249.975 C 7.475 289.663,14.278 327.288,38.822 353.521 C 42.436 357.384,42.605 357.371,41.312 353.333 C 39.021 346.180,38.830 341.662,40.734 339.667 C 42.287 338.038,43.820 338.857,47.209 343.124 C 58.231 357.001,66.915 363.841,81.600 370.216 C 100.585 378.456,122.252 379.886,144.400 374.359 C 173.992 366.974,199.155 344.915,217.458 310.313 C 219.088 307.232,219.235 306.830,218.934 306.269 C 218.289 305.063,188.311 279.753,186.934 279.252 C 186.811 279.207,185.458 281.067,183.928 283.385 C 159.517 320.365,125.760 331.319,103.114 309.609 C 80.714 288.134,84.209 247.817,111.099 217.497 C 112.254 216.194,113.654 214.611,114.208 213.979 L 115.216 212.830 114.208 212.546 C 109.720 211.286,103.524 211.814,99.620 213.791 C 98.898 214.157,94.274 217.240,89.345 220.643 C 78.705 227.988,79.757 227.310,79.893 226.734 C 79.954 226.477,80.899 221.227,81.993 215.067 C 83.315 207.626,84.209 203.292,84.656 202.154 C 85.488 200.038,85.495 200.044,83.427 201.083 C 70.498 207.584,64.430 212.486,50.870 227.386 C 46.144 232.580,42.241 236.722,42.197 236.591 C 41.690 235.071,44.117 208.883,45.328 202.800 C 47.037 194.217,47.228 191.951,46.351 190.669 C 45.392 189.265,45.134 189.354,41.578 192.318 M152.546 199.763 C 150.597 204.293,150.807 210.109,153.091 214.864 C 154.479 217.755,157.039 220.350,163.141 225.051 C 171.692 231.639,173.149 233.961,173.861 242.133 C 175.004 255.257,178.277 260.738,191.067 270.946 C 205.051 282.107,222.650 296.981,225.289 299.869 C 231.754 306.943,233.431 313.986,232.399 329.733 C 231.517 343.188,232.261 348.826,235.864 356.000 C 240.011 364.256,248.232 371.513,256.874 374.546 C 259.325 375.407,259.590 375.296,258.356 373.930 C 249.935 364.609,249.928 347.921,258.341 338.133 L 259.144 337.200 259.333 338.800 C 261.262 355.145,270.857 369.966,284.572 377.789 C 302.237 387.865,329.873 385.227,348.331 371.702 C 352.524 368.630,357.879 362.611,355.533 363.608 C 347.162 367.163,330.138 364.131,321.107 357.477 C 319.079 355.982,319.078 355.986,321.600 356.278 C 339.870 358.396,360.080 349.399,369.841 334.802 C 389.871 304.847,367.274 267.313,328.400 265.968 C 326.053 265.887,323.473 265.926,322.667 266.055 L 321.200 266.290 323.189 266.903 C 340.715 272.303,347.239 292.574,335.339 304.651 C 328.506 311.585,315.396 315.592,304.353 314.122 C 301.356 313.723,301.364 313.732,302.896 312.513 C 316.358 301.794,313.246 272.661,297.529 262.269 C 295.631 261.014,295.611 261.035,296.266 263.599 C 299.307 275.488,290.129 287.145,278.403 286.286 C 272.392 285.846,269.716 284.252,256.133 273.020 C 240.456 260.055,226.689 248.718,223.200 245.900 C 216.535 240.516,213.645 239.515,202.763 238.817 C 192.516 238.159,191.665 237.426,189.756 227.597 C 187.767 217.358,184.927 215.119,172.667 214.121 C 160.794 213.155,154.030 208.393,153.650 200.733 C 153.517 198.035,153.352 197.890,152.546 199.763 " stroke="none" fill="#000000" fill-rule="evenodd"></path></g></svg>