<?xml version="1.0" encoding="iso-8859-1"?>
<!-- Generator: Adobe Illustrator 19.0.0, SVG Export Plug-In . SVG Version: 6.00 Build 0)  -->
<svg version="1.1" id="Capa_1" xmlns="http://www.w3.org/2000/svg" xmlns:xlink="http://www.w3.org/1999/xlink" x="0px" y="0px"
	 viewBox="0 0 384.792 384.792" style="enable-background:new 0 0 384.792 384.792;" xml:space="preserve">
<g>
	<path id="Arrows_Up_x2F_Down" d="M116.783,281.339c-4.74-4.704-12.439-4.704-17.179,0c-4.74,4.704-4.74,12.319,0,17.011
		l84.2,82.997c4.644,4.559,12.512,4.632,17.191-0.012l84.188-82.997c4.74-4.704,4.74-12.319,0-17.011
		c-4.752-4.692-12.439-4.704-17.191,0l-63.448,62.558V40.89l63.46,62.558c4.752,4.704,12.439,4.692,17.179,0
		c4.752-4.704,4.752-12.319,0-17.011l-84.2-82.997c-4.812-4.776-12.367-4.391-17.191,0L99.604,86.436
		c-4.752,4.704-4.74,12.319,0,17.011c4.74,4.704,12.439,4.704,17.179,0l63.46-62.558v303.007L116.783,281.339z"/>
	<g>
	</g>
	<g>
	</g>
	<g>
	</g>
	<g>
	</g>
	<g>
	</g>
	<g>
	</g>
</g>
<g>
</g>
<g>
</g>
<g>
</g>
<g>
</g>
<g>
</g>
<g>
</g>
<g>
</g>
<g>
</g>
<g>
</g>
<g>
</g>
<g>
</g>
<g>
</g>
<g>
</g>
<g>
</g>
<g>
</g>
</svg>
