<svg xmlns="http://www.w3.org/2000/svg" xmlns:xlink="http://www.w3.org/1999/xlink" version="1.1" width="256" height="256" viewBox="0 0 256 256" xml:space="preserve">

<defs>
</defs>
<g style="stroke: none; stroke-width: 0; stroke-dasharray: none; stroke-linecap: butt; stroke-linejoin: miter; stroke-miterlimit: 10; fill: none; fill-rule: nonzero; opacity: 1;" transform="translate(1.4065934065934016 1.4065934065934016) scale(2.81 2.81)" >
	<path d="M 89.784 45.764 c 0.036 -0.061 0.073 -0.122 0.1 -0.188 c 0.012 -0.03 0.018 -0.062 0.029 -0.092 c 0.021 -0.062 0.044 -0.123 0.057 -0.188 C 89.99 45.199 90 45.1 90 45 c 0 -0.1 -0.01 -0.2 -0.03 -0.297 c -0.013 -0.065 -0.036 -0.125 -0.057 -0.187 c -0.01 -0.031 -0.016 -0.063 -0.029 -0.093 c -0.029 -0.069 -0.066 -0.133 -0.105 -0.196 c -0.012 -0.02 -0.02 -0.042 -0.033 -0.061 c -0.055 -0.082 -0.117 -0.158 -0.187 -0.228 L 76.713 31.092 c -0.586 -0.586 -1.535 -0.586 -2.121 0 s -0.586 1.536 0 2.121 L 84.879 43.5 H 46.5 V 5.121 l 10.287 10.287 c 0.586 0.586 1.535 0.586 2.121 0 c 0.293 -0.293 0.439 -0.677 0.439 -1.061 s -0.146 -0.768 -0.439 -1.061 L 46.06 0.439 c -0.069 -0.069 -0.145 -0.131 -0.226 -0.186 c -0.021 -0.014 -0.045 -0.023 -0.067 -0.037 c -0.062 -0.037 -0.123 -0.074 -0.19 -0.102 c -0.029 -0.012 -0.061 -0.018 -0.091 -0.028 c -0.062 -0.021 -0.123 -0.044 -0.189 -0.057 C 45.199 0.01 45.1 0 45 0 c -0.1 0 -0.2 0.01 -0.297 0.03 c -0.065 0.013 -0.125 0.036 -0.187 0.057 c -0.031 0.01 -0.063 0.016 -0.093 0.029 c -0.069 0.029 -0.133 0.066 -0.196 0.105 c -0.02 0.012 -0.042 0.02 -0.061 0.033 c -0.082 0.055 -0.158 0.117 -0.228 0.187 L 31.092 13.287 c -0.586 0.586 -0.586 1.535 0 2.121 s 1.536 0.586 2.121 0 L 43.5 5.121 V 43.5 H 5.121 l 10.287 -10.287 c 0.586 -0.585 0.586 -1.536 0 -2.121 c -0.586 -0.586 -1.535 -0.586 -2.121 0 L 0.441 43.937 c -0.14 0.139 -0.251 0.307 -0.328 0.492 c -0.003 0.007 -0.004 0.015 -0.007 0.023 C 0.04 44.622 0 44.806 0 44.999 c 0 0 0 0 0 0 s 0 0 0 0 c 0 0.194 0.04 0.377 0.107 0.547 c 0.003 0.007 0.004 0.015 0.007 0.022 c 0.076 0.185 0.187 0.352 0.327 0.492 l 12.846 12.847 c 0.293 0.293 0.677 0.439 1.061 0.439 s 0.768 -0.146 1.061 -0.439 c 0.586 -0.586 0.586 -1.535 0 -2.121 L 5.121 46.5 H 43.5 v 38.379 L 33.213 74.592 c -0.585 -0.586 -1.536 -0.586 -2.121 0 c -0.586 0.586 -0.586 1.535 0 2.121 l 12.845 12.845 c 0.139 0.14 0.307 0.251 0.492 0.328 c 0.007 0.003 0.015 0.004 0.023 0.007 C 44.622 89.96 44.806 90 44.999 90 c 0 0 0 0 0 0 s 0 0 0 0 c 0.194 0 0.377 -0.04 0.547 -0.107 c 0.007 -0.003 0.015 -0.004 0.022 -0.007 c 0.185 -0.076 0.352 -0.187 0.492 -0.327 l 12.847 -12.846 c 0.293 -0.293 0.439 -0.677 0.439 -1.061 s -0.146 -0.768 -0.439 -1.061 c -0.586 -0.586 -1.535 -0.586 -2.121 0 L 46.5 84.879 V 46.5 h 38.379 L 74.592 56.787 c -0.586 0.586 -0.586 1.535 0 2.121 c 0.293 0.293 0.677 0.439 1.061 0.439 s 0.768 -0.146 1.061 -0.439 L 89.561 46.06 c 0.069 -0.069 0.131 -0.145 0.185 -0.226 C 89.761 45.812 89.771 45.787 89.784 45.764 z" style="stroke: none; stroke-width: 1; stroke-dasharray: none; stroke-linecap: butt; stroke-linejoin: miter; stroke-miterlimit: 10; fill: rgb(29,29,27); fill-rule: nonzero; opacity: 1;" transform=" matrix(1 0 0 1 0 0) " stroke-linecap="round" />
</g>
</svg>