<svg id="svg" version="1.1" xmlns="http://www.w3.org/2000/svg" xmlns:xlink="http://www.w3.org/1999/xlink" width="400" height="400" viewBox="0, 0, 400,400"><g id="svgg"><path id="path0" d="M154.545 33.000 C 154.418 33.330,153.927 33.600,153.453 33.600 C 152.980 33.600,152.368 33.960,152.093 34.400 C 151.818 34.840,151.307 35.200,150.957 35.200 C 150.047 35.200,147.994 37.531,147.727 38.867 C 147.574 39.628,147.253 40.000,146.750 40.000 C 146.267 40.000,146.000 40.284,146.000 40.800 C 146.000 41.240,145.742 41.600,145.427 41.600 C 145.112 41.600,144.740 41.960,144.600 42.400 C 144.460 42.840,144.088 43.200,143.773 43.200 C 143.458 43.200,143.200 43.520,143.200 43.911 C 143.200 44.302,142.840 44.930,142.400 45.307 C 141.960 45.684,141.600 46.354,141.600 46.796 C 141.600 47.250,141.334 47.600,140.990 47.600 C 140.655 47.600,140.218 48.025,140.021 48.545 C 139.823 49.065,139.377 49.600,139.031 49.733 C 138.648 49.880,138.400 50.452,138.400 51.187 C 138.400 52.133,138.224 52.400,137.600 52.400 C 137.067 52.400,136.800 52.667,136.800 53.200 C 136.800 53.733,136.533 54.000,136.000 54.000 C 135.467 54.000,135.200 54.267,135.200 54.800 C 135.200 55.333,134.933 55.600,134.400 55.600 C 133.867 55.600,133.600 55.867,133.600 56.400 C 133.600 56.933,133.333 57.200,132.800 57.200 C 132.267 57.200,132.000 57.467,132.000 58.000 C 132.000 58.533,131.733 58.800,131.200 58.800 C 130.760 58.800,130.400 58.992,130.400 59.227 C 130.400 59.730,126.862 63.200,126.350 63.200 C 126.157 63.200,126.000 63.560,126.000 64.000 C 126.000 64.533,125.733 64.800,125.200 64.800 C 124.667 64.800,124.400 65.067,124.400 65.600 C 124.400 66.118,124.133 66.400,123.643 66.400 C 123.226 66.400,122.779 66.679,122.648 67.019 C 122.517 67.359,121.868 67.827,121.205 68.058 C 120.542 68.289,120.000 68.614,120.000 68.781 C 120.000 69.376,118.026 71.200,117.382 71.200 C 117.021 71.200,116.635 71.543,116.526 71.963 C 116.416 72.383,115.983 72.816,115.563 72.926 C 115.143 73.035,114.800 73.391,114.800 73.716 C 114.800 74.041,114.440 74.401,114.000 74.516 C 113.560 74.631,113.200 75.012,113.200 75.363 C 113.200 75.733,112.865 76.000,112.400 76.000 C 111.960 76.000,111.600 76.157,111.600 76.349 C 111.600 76.541,110.614 77.306,109.408 78.049 C 108.142 78.829,107.213 79.690,107.208 80.087 C 107.203 80.513,106.985 80.692,106.636 80.559 C 106.303 80.431,105.970 80.663,105.823 81.128 C 105.686 81.560,105.219 82.006,104.787 82.119 C 103.460 82.466,103.662 91.200,104.996 91.200 C 105.277 91.200,105.601 91.560,105.716 92.000 C 105.831 92.440,106.212 92.800,106.563 92.800 C 106.933 92.800,107.200 93.135,107.200 93.600 C 107.200 94.133,107.467 94.400,108.000 94.400 C 108.533 94.400,108.800 94.667,108.800 95.200 C 108.800 95.717,109.067 96.000,109.553 96.000 C 109.970 96.000,110.400 96.357,110.516 96.800 C 110.631 97.240,111.012 97.600,111.363 97.600 C 111.713 97.600,112.000 97.851,112.000 98.157 C 112.000 98.769,112.841 99.200,114.033 99.200 C 114.533 99.200,114.800 99.478,114.800 100.000 C 114.800 100.533,115.067 100.800,115.600 100.800 C 116.133 100.800,116.400 101.067,116.400 101.600 C 116.400 102.133,116.667 102.400,117.200 102.400 C 117.733 102.400,118.000 102.667,118.000 103.200 C 118.000 103.640,118.360 104.360,118.800 104.800 C 119.240 105.240,119.600 105.849,119.600 106.153 C 119.600 106.458,119.960 106.801,120.400 106.916 C 121.013 107.076,121.200 107.462,121.200 108.563 C 121.200 109.733,121.348 110.000,122.000 110.000 C 122.718 110.000,122.800 110.267,122.800 112.597 C 122.800 114.760,122.933 115.277,123.600 115.693 C 124.348 116.160,124.400 116.626,124.400 122.909 C 124.400 128.510,124.500 129.663,125.000 129.855 C 125.447 130.027,125.600 130.739,125.600 132.643 L 125.600 135.200 124.033 135.200 C 122.078 135.200,121.200 135.523,121.200 136.243 C 121.200 136.626,120.701 136.800,119.600 136.800 C 118.267 136.800,118.000 136.933,118.000 137.600 C 118.000 138.252,117.733 138.400,116.563 138.400 C 115.462 138.400,115.076 138.587,114.916 139.200 C 114.739 139.875,114.370 140.000,112.553 140.000 C 110.667 140.000,110.400 140.099,110.400 140.800 C 110.400 141.467,110.133 141.600,108.800 141.600 C 107.680 141.600,107.200 141.771,107.200 142.171 C 107.200 142.565,106.505 142.829,104.968 143.021 C 103.741 143.175,102.650 143.526,102.544 143.803 C 102.437 144.079,101.642 144.419,100.775 144.558 C 99.760 144.720,99.200 145.021,99.200 145.405 C 99.200 145.821,98.769 146.000,97.763 146.000 C 96.673 146.000,96.276 146.189,96.121 146.781 C 95.958 147.405,95.506 147.585,93.858 147.681 L 91.800 147.800 91.800 157.600 L 91.800 167.400 93.704 167.522 C 95.137 167.614,95.667 167.490,95.847 167.022 C 95.978 166.680,96.518 166.400,97.047 166.400 C 97.575 166.400,98.316 166.040,98.693 165.600 C 99.126 165.094,99.873 164.800,100.726 164.800 C 101.738 164.800,102.127 164.600,102.284 164.000 C 102.440 163.403,102.830 163.200,103.820 163.200 C 104.795 163.200,105.213 162.988,105.400 162.400 C 105.610 161.740,106.005 161.600,107.664 161.600 C 109.338 161.600,109.710 161.466,109.884 160.800 C 110.043 160.194,110.430 160.000,111.484 160.000 C 112.538 160.000,112.925 159.806,113.084 159.200 C 113.247 158.576,113.630 158.400,114.818 158.400 C 115.657 158.400,116.582 158.161,116.875 157.868 C 117.167 157.575,118.115 157.221,118.980 157.081 C 119.846 156.940,120.708 156.550,120.897 156.213 C 121.085 155.876,121.764 155.600,122.406 155.600 C 123.162 155.600,123.722 155.319,124.000 154.800 C 124.302 154.236,124.838 154.000,125.814 154.000 L 127.200 154.000 127.205 156.900 C 127.212 160.261,127.492 161.600,128.190 161.600 C 128.566 161.600,128.736 163.889,128.888 171.007 C 129.054 178.778,129.197 180.534,129.714 181.107 C 130.228 181.677,130.363 183.248,130.470 189.933 C 130.585 197.125,130.681 198.125,131.300 198.577 C 131.919 199.029,132.000 199.873,132.002 205.844 C 132.004 212.134,132.283 214.611,133.211 216.600 C 133.416 217.040,133.633 220.970,133.692 225.333 C 133.786 232.243,133.887 233.330,134.476 233.760 C 135.066 234.191,135.169 235.306,135.276 242.486 C 135.384 249.655,135.490 250.818,136.100 251.490 C 136.714 252.168,136.800 253.179,136.800 259.717 C 136.800 266.762,136.844 267.195,137.600 267.600 C 138.356 268.005,138.400 268.438,138.400 275.552 C 138.400 282.568,138.454 283.125,139.200 283.800 C 140.302 284.797,140.330 287.211,139.237 286.926 C 138.817 286.816,138.384 286.383,138.274 285.963 C 138.165 285.543,137.809 285.200,137.484 285.200 C 137.159 285.200,136.799 284.840,136.684 284.400 C 136.569 283.960,136.209 283.600,135.884 283.600 C 135.559 283.600,135.199 283.240,135.084 282.800 C 134.969 282.360,134.609 282.000,134.284 282.000 C 133.959 282.000,133.599 281.640,133.484 281.200 C 133.369 280.760,132.988 280.400,132.637 280.400 C 132.267 280.400,132.000 280.065,132.000 279.600 C 132.000 279.160,131.671 278.471,131.269 278.069 C 130.868 277.668,130.423 277.038,130.282 276.669 C 130.141 276.301,129.749 276.000,129.413 276.000 C 129.067 276.000,128.800 275.652,128.800 275.200 C 128.800 274.667,128.533 274.400,128.000 274.400 C 127.467 274.400,127.200 274.133,127.200 273.600 C 127.200 272.990,126.933 272.800,126.080 272.800 C 125.464 272.800,124.764 272.604,124.525 272.365 C 124.212 272.052,124.015 272.052,123.822 272.365 C 123.674 272.604,122.916 272.800,122.137 272.800 C 120.569 272.800,118.589 274.507,118.156 276.232 C 118.027 276.749,117.578 277.280,117.160 277.413 C 116.742 277.545,116.400 277.900,116.400 278.200 C 116.400 278.500,116.037 278.861,115.594 279.002 C 115.151 279.143,114.892 279.425,115.018 279.630 C 115.145 279.834,114.787 280.177,114.224 280.391 C 113.661 280.605,113.200 281.055,113.200 281.390 C 113.200 281.726,112.913 282.000,112.563 282.000 C 112.212 282.000,111.831 282.360,111.716 282.800 C 111.601 283.240,111.270 283.600,110.980 283.600 C 110.691 283.600,110.340 283.960,110.200 284.400 C 110.060 284.840,109.688 285.200,109.373 285.200 C 109.058 285.200,108.800 285.560,108.800 286.000 C 108.800 286.440,108.538 286.800,108.218 286.800 C 107.898 286.800,107.158 287.230,106.573 287.755 C 104.486 289.628,103.995 290.000,103.614 290.000 C 103.402 290.000,103.035 290.360,102.800 290.800 C 102.565 291.240,102.120 291.600,101.813 291.600 C 101.505 291.600,101.140 291.960,101.000 292.400 C 100.860 292.840,100.492 293.200,100.181 293.200 C 99.559 293.200,99.263 294.165,99.141 296.600 C 98.989 299.601,99.164 300.465,99.963 300.674 C 100.383 300.784,100.816 301.217,100.926 301.637 C 101.035 302.057,101.391 302.400,101.716 302.400 C 102.041 302.400,102.401 302.760,102.516 303.200 C 102.631 303.640,103.012 304.000,103.363 304.000 C 103.713 304.000,104.000 304.258,104.000 304.573 C 104.000 304.888,104.360 305.260,104.800 305.400 C 105.240 305.540,105.600 305.912,105.600 306.227 C 105.600 306.542,105.887 306.800,106.237 306.800 C 106.588 306.800,106.969 307.160,107.084 307.600 C 107.200 308.043,107.630 308.400,108.047 308.400 C 108.461 308.400,108.800 308.676,108.800 309.013 C 108.800 309.349,109.088 309.736,109.440 309.871 C 110.264 310.187,111.813 311.736,112.129 312.560 C 112.264 312.912,112.540 313.200,112.741 313.200 C 112.942 313.200,113.201 313.560,113.316 314.000 C 113.431 314.440,113.812 314.800,114.163 314.800 C 114.533 314.800,114.800 315.135,114.800 315.600 C 114.800 316.133,115.067 316.400,115.600 316.400 C 116.220 316.400,116.400 316.667,116.400 317.586 C 116.400 318.362,116.676 318.920,117.200 319.200 C 117.640 319.435,118.000 319.890,118.000 320.209 C 118.000 320.578,118.585 320.884,119.600 321.046 C 120.552 321.199,121.200 321.521,121.200 321.844 C 121.200 323.044,126.598 322.992,127.060 321.787 C 127.178 321.481,127.617 321.121,128.037 320.988 C 128.457 320.855,128.800 320.488,128.800 320.173 C 128.800 319.858,129.087 319.600,129.437 319.600 C 129.788 319.600,130.165 319.257,130.274 318.837 C 130.384 318.417,130.817 317.984,131.237 317.874 C 131.657 317.765,132.000 317.388,132.000 317.037 C 132.000 316.687,132.360 316.040,132.800 315.600 C 133.240 315.160,133.600 314.440,133.600 314.000 C 133.600 313.467,133.867 313.200,134.400 313.200 C 134.933 313.200,135.200 312.933,135.200 312.400 C 135.200 311.935,135.467 311.600,135.837 311.600 C 136.188 311.600,136.569 311.240,136.684 310.800 C 136.799 310.360,137.159 310.000,137.484 310.000 C 137.809 310.000,138.169 309.640,138.284 309.200 C 138.399 308.760,138.748 308.400,139.059 308.400 C 139.370 308.400,139.722 308.148,139.840 307.839 C 140.590 305.886,141.600 306.907,141.600 309.618 C 141.600 311.717,141.750 312.444,142.241 312.719 C 143.261 313.290,143.316 331.029,142.300 331.775 C 141.915 332.057,141.600 332.562,141.600 332.897 C 141.600 333.233,141.240 333.601,140.800 333.716 C 140.360 333.831,140.000 334.191,140.000 334.516 C 140.000 334.841,139.640 335.201,139.200 335.316 C 138.760 335.431,138.400 335.791,138.400 336.116 C 138.400 336.441,138.040 336.801,137.600 336.916 C 137.160 337.031,136.800 337.412,136.800 337.763 C 136.800 338.133,136.465 338.400,136.000 338.400 C 135.467 338.400,135.200 338.667,135.200 339.200 C 135.200 339.733,134.933 340.000,134.400 340.000 C 133.867 340.000,133.600 340.267,133.600 340.800 C 133.600 341.333,133.333 341.600,132.800 341.600 C 132.190 341.600,132.000 341.867,132.000 342.720 C 132.000 343.336,131.804 344.036,131.565 344.275 C 131.252 344.588,131.252 344.785,131.565 344.978 C 131.804 345.126,132.003 345.912,132.006 346.724 C 132.014 348.519,135.113 351.843,137.162 352.252 C 138.018 352.424,138.400 352.732,138.400 353.250 C 138.400 353.733,138.684 354.000,139.200 354.000 C 139.665 354.000,140.000 354.267,140.000 354.637 C 140.000 354.988,140.360 355.369,140.800 355.484 C 141.240 355.599,141.600 355.930,141.600 356.220 C 141.600 356.509,141.960 356.860,142.400 357.000 C 142.840 357.140,143.200 357.491,143.200 357.780 C 143.200 358.070,143.560 358.401,144.000 358.516 C 144.440 358.631,144.800 359.012,144.800 359.363 C 144.800 359.713,145.070 360.000,145.400 360.000 C 145.730 360.000,146.000 360.287,146.000 360.637 C 146.000 360.988,146.360 361.369,146.800 361.484 C 147.243 361.600,147.600 362.030,147.600 362.447 C 147.600 362.933,147.883 363.200,148.400 363.200 C 148.933 363.200,149.200 363.467,149.200 364.000 C 149.200 364.533,149.467 364.800,150.000 364.800 C 150.522 364.800,150.800 365.067,150.800 365.567 C 150.800 367.001,151.275 367.578,152.671 367.840 C 153.437 367.983,154.159 368.348,154.275 368.651 C 154.577 369.438,157.950 369.395,158.255 368.600 C 158.382 368.270,158.826 368.000,159.243 368.000 C 159.733 368.000,160.000 367.718,160.000 367.200 C 160.000 366.667,160.267 366.400,160.800 366.400 C 161.333 366.400,161.600 366.133,161.600 365.600 C 161.600 365.067,161.867 364.800,162.400 364.800 C 162.933 364.800,163.200 364.533,163.200 364.000 C 163.200 363.467,163.467 363.200,164.000 363.200 C 164.517 363.200,164.800 362.933,164.800 362.447 C 164.800 362.030,165.157 361.600,165.600 361.484 C 166.040 361.369,166.400 361.007,166.400 360.680 C 166.400 360.353,166.670 359.982,167.000 359.855 C 167.330 359.729,167.600 359.349,167.600 359.013 C 167.600 358.676,167.810 358.400,168.066 358.400 C 168.567 358.400,168.921 358.113,171.400 355.694 C 172.280 354.836,173.315 354.019,173.700 353.879 C 174.085 353.739,174.400 353.349,174.400 353.013 C 174.400 352.676,174.678 352.400,175.018 352.400 C 175.358 352.400,176.086 351.950,176.636 351.400 C 177.186 350.850,177.808 350.400,178.018 350.400 C 178.228 350.400,178.400 350.246,178.400 350.058 C 178.400 349.871,178.850 349.231,179.400 348.638 C 180.779 347.150,180.937 341.600,179.600 341.600 C 179.067 341.600,178.800 341.333,178.800 340.800 C 178.800 340.267,178.533 340.000,178.000 340.000 C 177.467 340.000,177.200 339.733,177.200 339.200 C 177.200 338.667,176.933 338.400,176.400 338.400 C 175.935 338.400,175.600 338.133,175.600 337.763 C 175.600 337.412,175.240 337.031,174.800 336.916 C 174.360 336.801,174.000 336.441,174.000 336.116 C 174.000 335.791,173.640 335.431,173.200 335.316 C 172.760 335.201,172.400 334.954,172.400 334.767 C 172.400 334.580,171.770 333.797,171.000 333.027 C 170.056 332.083,169.600 331.256,169.600 330.489 C 169.600 329.863,169.240 328.964,168.800 328.492 C 167.688 327.298,167.613 321.371,168.700 320.577 C 169.310 320.132,169.417 319.183,169.534 313.233 C 169.607 309.475,169.769 306.400,169.892 306.400 C 170.387 306.400,174.400 309.268,174.400 309.621 C 174.400 309.830,174.760 310.000,175.200 310.000 C 175.733 310.000,176.000 310.267,176.000 310.800 C 176.000 311.240,176.258 311.600,176.573 311.600 C 176.888 311.600,177.260 311.960,177.400 312.400 C 177.540 312.840,177.912 313.200,178.227 313.200 C 178.542 313.200,178.800 313.560,178.800 314.000 C 178.800 314.440,179.142 315.142,179.561 315.561 C 179.979 315.979,180.441 316.699,180.587 317.161 C 180.734 317.622,181.091 318.000,181.380 318.000 C 181.670 318.000,182.001 318.360,182.116 318.800 C 182.231 319.240,182.591 319.600,182.916 319.600 C 183.241 319.600,183.601 319.960,183.716 320.400 C 183.831 320.840,184.212 321.200,184.563 321.200 C 184.913 321.200,185.200 321.449,185.200 321.753 C 185.200 323.025,190.041 323.228,191.093 322.000 C 191.470 321.560,192.008 321.200,192.289 321.200 C 192.570 321.200,192.800 320.840,192.800 320.400 C 192.800 319.867,193.067 319.600,193.600 319.600 C 194.133 319.600,194.400 319.333,194.400 318.800 C 194.400 318.267,194.667 318.000,195.200 318.000 C 195.733 318.000,196.000 317.733,196.000 317.200 C 196.000 316.667,196.267 316.400,196.800 316.400 C 197.300 316.400,197.600 316.133,197.600 315.689 C 197.600 315.298,197.960 314.670,198.400 314.293 C 198.840 313.916,199.200 313.156,199.200 312.604 C 199.200 311.867,199.413 311.600,200.000 311.600 C 200.533 311.600,200.800 311.333,200.800 310.800 C 200.800 310.303,201.067 310.000,201.504 310.000 C 201.891 310.000,202.432 309.640,202.707 309.200 C 202.982 308.760,203.559 308.400,203.989 308.400 C 204.420 308.400,204.965 308.040,205.200 307.600 C 205.435 307.160,205.892 306.800,206.214 306.800 C 206.536 306.800,206.800 306.542,206.800 306.227 C 206.800 305.912,207.160 305.540,207.600 305.400 C 208.040 305.260,208.400 304.888,208.400 304.573 C 208.400 304.258,208.687 304.000,209.037 304.000 C 209.388 304.000,209.765 303.657,209.874 303.237 C 209.984 302.817,210.417 302.384,210.837 302.274 C 211.263 302.163,211.600 301.726,211.600 301.284 C 211.600 300.830,211.940 300.404,212.400 300.284 C 213.097 300.102,213.200 299.738,213.200 297.464 C 213.200 295.205,213.092 294.820,212.400 294.600 C 211.960 294.460,211.600 294.002,211.600 293.582 C 211.600 292.599,207.417 288.400,206.438 288.400 C 206.028 288.400,205.599 288.040,205.484 287.600 C 205.369 287.160,205.009 286.800,204.684 286.800 C 204.359 286.800,203.999 286.440,203.884 286.000 C 203.769 285.560,203.409 285.200,203.084 285.200 C 202.759 285.200,202.399 284.840,202.284 284.400 C 202.169 283.960,201.788 283.600,201.437 283.600 C 201.087 283.600,200.800 283.330,200.800 283.000 C 200.800 282.670,200.634 282.400,200.431 282.400 C 200.228 282.400,199.356 281.680,198.493 280.800 C 197.631 279.920,196.738 279.200,196.509 279.200 C 196.280 279.200,195.999 278.840,195.884 278.400 C 195.769 277.960,195.388 277.600,195.037 277.600 C 194.667 277.600,194.400 277.265,194.400 276.800 C 194.400 276.267,194.133 276.000,193.600 276.000 C 193.020 276.000,192.800 275.733,192.800 275.029 C 192.800 273.278,191.850 272.800,188.371 272.800 C 185.467 272.800,185.200 272.867,185.200 273.600 C 185.200 274.133,184.933 274.400,184.400 274.400 C 183.867 274.400,183.600 274.667,183.600 275.200 C 183.600 275.733,183.333 276.000,182.800 276.000 C 182.267 276.000,182.000 276.267,182.000 276.800 C 182.000 277.240,181.749 277.600,181.443 277.600 C 180.831 277.600,180.400 278.441,180.400 279.633 C 180.400 280.068,180.124 280.400,179.763 280.400 C 179.412 280.400,179.031 280.760,178.916 281.200 C 178.801 281.640,178.471 282.000,178.182 282.000 C 177.544 282.000,175.233 284.189,174.278 285.700 C 173.231 287.354,172.800 287.038,172.800 284.620 C 172.800 282.964,172.967 282.346,173.497 282.050 C 174.101 281.712,174.212 280.847,174.339 275.530 C 174.451 270.827,174.615 269.326,175.043 269.080 C 175.484 268.827,175.600 267.363,175.600 262.027 C 175.600 255.630,175.640 255.283,176.400 255.084 C 177.165 254.884,177.200 254.538,177.200 247.237 C 177.200 240.133,177.256 239.544,178.000 238.800 C 178.753 238.047,178.800 237.467,178.800 228.827 C 178.800 220.005,178.831 219.644,179.600 219.400 C 180.364 219.158,180.400 218.795,180.400 211.420 C 180.400 204.030,180.435 203.684,181.200 203.484 C 181.965 203.284,182.000 202.938,182.000 195.637 C 182.000 189.401,182.102 188.000,182.553 188.000 C 183.432 188.000,183.589 186.658,183.595 179.063 C 183.599 172.750,183.685 171.818,184.334 170.993 C 184.979 170.173,185.077 169.168,185.140 162.769 C 185.200 156.706,185.316 155.403,185.832 155.026 C 186.338 154.656,186.494 153.187,186.685 146.987 C 186.827 142.347,187.082 139.293,187.341 139.126 C 187.827 138.811,188.339 134.342,188.375 130.100 C 188.399 127.283,188.428 127.200,189.397 127.200 C 189.960 127.200,190.610 126.852,190.893 126.400 C 191.244 125.837,191.826 125.600,192.853 125.600 C 193.716 125.600,194.400 125.377,194.523 125.056 C 194.640 124.750,195.570 124.417,196.642 124.296 C 197.692 124.178,198.742 123.821,198.976 123.503 C 199.209 123.185,200.075 122.799,200.900 122.644 C 201.737 122.488,202.400 122.130,202.400 121.834 C 202.400 121.499,203.092 121.226,204.276 121.093 C 205.327 120.974,206.357 120.600,206.620 120.241 C 206.877 119.888,207.459 119.600,207.911 119.600 C 209.156 119.600,210.000 119.179,210.000 118.557 C 210.000 118.178,210.490 118.000,211.538 118.000 C 212.568 118.000,213.315 117.736,213.800 117.200 C 214.291 116.658,215.032 116.400,216.099 116.400 C 217.338 116.400,217.720 116.229,217.884 115.600 C 218.354 113.802,219.600 114.673,219.600 116.800 C 219.600 118.267,219.813 119.013,220.400 119.600 C 220.963 120.163,221.200 120.933,221.200 122.200 C 221.200 123.467,221.437 124.237,222.000 124.800 C 222.533 125.333,222.800 126.133,222.800 127.200 C 222.800 128.533,222.933 128.800,223.600 128.800 C 224.253 128.800,224.400 129.067,224.400 130.256 C 224.400 131.116,224.656 131.899,225.027 132.170 C 225.371 132.422,225.757 133.402,225.884 134.349 C 226.011 135.295,226.341 136.156,226.618 136.262 C 226.895 136.368,227.239 137.082,227.383 137.849 C 227.527 138.615,227.904 139.342,228.222 139.464 C 228.540 139.586,228.800 139.930,228.800 140.229 C 228.800 140.527,229.160 140.965,229.600 141.200 C 230.040 141.435,230.400 141.967,230.400 142.381 C 230.400 143.560,230.834 144.400,231.443 144.400 C 231.749 144.400,232.000 144.760,232.000 145.200 C 232.000 145.733,232.267 146.000,232.800 146.000 C 233.422 146.000,233.600 146.267,233.600 147.197 C 233.600 147.960,233.890 148.574,234.400 148.893 C 234.840 149.168,235.200 149.709,235.200 150.096 C 235.200 150.533,235.503 150.800,236.000 150.800 C 236.624 150.800,236.800 151.067,236.800 152.013 C 236.800 152.748,237.048 153.320,237.431 153.467 C 237.777 153.600,238.223 154.135,238.421 154.655 C 238.618 155.175,239.055 155.600,239.390 155.600 C 239.733 155.600,240.000 155.950,240.000 156.400 C 240.000 156.840,240.360 157.560,240.800 158.000 C 241.240 158.440,241.600 159.070,241.600 159.400 C 241.600 159.730,241.858 160.000,242.173 160.000 C 242.488 160.000,242.860 160.360,243.000 160.800 C 243.140 161.240,243.512 161.600,243.827 161.600 C 244.142 161.600,244.400 161.960,244.400 162.400 C 244.400 162.840,244.760 163.560,245.200 164.000 C 245.640 164.440,246.000 165.087,246.000 165.437 C 246.000 165.788,246.360 166.169,246.800 166.284 C 247.313 166.418,247.600 166.830,247.600 167.431 C 247.600 167.947,247.931 168.691,248.336 169.084 C 248.741 169.478,249.185 170.115,249.323 170.500 C 249.462 170.885,249.851 171.200,250.187 171.200 C 250.606 171.200,250.800 171.593,250.800 172.437 C 250.800 173.338,251.017 173.732,251.600 173.884 C 252.043 174.000,252.400 174.430,252.400 174.847 C 252.400 175.261,252.760 175.960,253.200 176.400 C 253.640 176.840,254.000 177.560,254.000 178.000 C 254.000 178.533,254.267 178.800,254.800 178.800 C 255.467 178.800,255.600 179.067,255.600 180.400 C 255.600 181.733,255.733 182.000,256.400 182.000 C 257.093 182.000,257.200 182.267,257.200 183.986 C 257.200 185.562,257.365 186.060,258.000 186.400 C 258.636 186.740,258.800 187.238,258.800 188.827 C 258.800 190.174,258.983 190.895,259.362 191.041 C 259.729 191.182,260.021 192.222,260.203 194.031 C 260.363 195.620,260.703 196.933,261.000 197.103 C 261.348 197.302,261.565 198.607,261.659 201.059 C 261.766 203.839,261.968 204.903,262.500 205.490 C 263.526 206.623,263.553 219.346,262.532 220.475 C 262.138 220.911,261.789 222.150,261.680 223.506 C 261.576 224.798,261.267 225.934,260.971 226.107 C 260.683 226.275,260.324 227.235,260.173 228.239 C 260.023 229.242,259.652 230.159,259.350 230.275 C 259.014 230.404,258.800 231.091,258.800 232.043 C 258.800 233.333,258.663 233.600,258.000 233.600 C 257.483 233.600,257.200 233.867,257.200 234.353 C 257.200 234.770,256.843 235.200,256.400 235.316 C 255.921 235.441,255.600 235.862,255.600 236.363 C 255.600 236.840,255.342 237.200,255.000 237.200 C 254.670 237.200,254.400 237.458,254.400 237.773 C 254.400 238.088,254.040 238.460,253.600 238.600 C 253.160 238.740,252.800 239.112,252.800 239.427 C 252.800 239.742,252.452 240.000,252.027 240.000 C 251.602 240.000,251.140 240.360,251.000 240.800 C 250.860 241.240,250.398 241.600,249.973 241.600 C 249.548 241.600,249.200 241.852,249.200 242.161 C 249.200 242.469,248.705 242.927,248.100 243.177 C 246.110 244.000,244.752 244.859,244.532 245.434 C 244.385 245.817,243.670 246.000,242.320 246.000 C 240.662 246.000,240.290 246.135,240.116 246.800 C 239.846 247.832,225.600 248.077,225.600 247.050 C 225.600 246.527,223.969 246.000,222.350 246.000 C 221.938 246.000,221.240 245.640,220.800 245.200 C 220.360 244.760,219.550 244.400,219.000 244.400 C 218.418 244.400,218.000 244.170,218.000 243.850 C 218.000 243.279,215.788 242.637,215.159 243.025 C 214.962 243.147,214.800 242.877,214.800 242.424 C 214.800 241.867,214.541 241.600,214.000 241.600 C 213.467 241.600,213.200 241.333,213.200 240.800 C 213.200 240.267,212.933 240.000,212.400 240.000 C 211.867 240.000,211.600 239.733,211.600 239.200 C 211.600 238.667,211.333 238.400,210.800 238.400 C 210.267 238.400,210.000 238.133,210.000 237.600 C 210.000 237.160,209.640 236.440,209.200 236.000 C 208.760 235.560,208.400 234.840,208.400 234.400 C 208.400 233.960,208.153 233.600,207.851 233.600 C 207.523 233.600,207.202 232.975,207.053 232.044 C 206.917 231.188,206.560 230.393,206.261 230.279 C 205.924 230.149,205.634 229.155,205.499 227.660 C 205.379 226.335,204.992 224.839,204.640 224.336 C 203.754 223.071,203.719 216.597,204.596 216.106 C 204.929 215.920,205.308 214.897,205.456 213.786 C 205.602 212.694,205.956 211.660,206.244 211.489 C 206.532 211.318,206.885 210.553,207.028 209.789 C 207.427 207.663,208.800 207.826,208.800 210.000 C 208.800 211.122,208.971 211.600,209.373 211.600 C 209.688 211.600,210.060 211.960,210.200 212.400 C 210.340 212.840,210.712 213.200,211.027 213.200 C 211.342 213.200,211.600 213.487,211.600 213.837 C 211.600 214.188,211.943 214.565,212.363 214.674 C 212.783 214.784,213.216 215.217,213.326 215.637 C 213.474 216.203,213.884 216.400,214.916 216.400 C 215.970 216.400,216.357 216.594,216.516 217.200 C 216.675 217.810,217.062 218.000,218.143 218.000 C 219.077 218.000,219.694 218.239,219.952 218.700 C 220.506 219.690,226.108 219.726,226.883 218.745 C 227.182 218.365,228.225 218.005,229.360 217.887 C 230.580 217.761,231.457 217.442,231.680 217.042 C 231.878 216.689,232.391 216.400,232.820 216.400 C 233.333 216.400,233.600 216.127,233.600 215.600 C 233.600 215.067,233.867 214.800,234.400 214.800 C 234.933 214.800,235.200 214.533,235.200 214.000 C 235.200 213.467,235.467 213.200,236.000 213.200 C 236.533 213.200,236.800 212.933,236.800 212.400 C 236.800 211.867,237.067 211.600,237.600 211.600 C 238.133 211.600,238.400 211.333,238.400 210.800 C 238.400 210.360,238.654 210.000,238.965 210.000 C 239.319 210.000,239.634 209.366,239.808 208.300 C 239.962 207.365,240.355 206.296,240.683 205.925 C 241.497 205.003,241.493 199.397,240.678 198.462 C 240.361 198.098,239.984 197.142,239.840 196.339 C 239.696 195.535,239.336 194.784,239.040 194.671 C 238.743 194.557,238.380 193.819,238.232 193.032 C 238.070 192.169,237.733 191.600,237.382 191.600 C 237.062 191.600,236.800 191.313,236.800 190.963 C 236.800 190.612,236.440 190.231,236.000 190.116 C 235.560 190.001,235.200 189.641,235.200 189.316 C 235.200 188.991,234.857 188.635,234.437 188.526 C 234.017 188.416,233.584 187.983,233.474 187.563 C 233.365 187.143,232.988 186.800,232.637 186.800 C 232.287 186.800,231.640 186.440,231.200 186.000 C 230.675 185.475,229.867 185.200,228.847 185.200 C 227.630 185.200,227.248 185.027,227.084 184.400 C 226.717 182.998,213.600 183.234,213.600 184.643 C 213.600 185.053,213.008 185.200,211.363 185.200 C 209.462 185.200,209.094 185.320,208.916 186.000 C 208.752 186.627,208.370 186.800,207.153 186.800 C 205.867 186.800,205.600 186.937,205.600 187.600 C 205.600 188.252,205.333 188.400,204.163 188.400 C 203.062 188.400,202.676 188.587,202.516 189.200 C 202.400 189.643,201.970 190.000,201.553 190.000 C 201.067 190.000,200.800 190.283,200.800 190.800 C 200.800 191.333,200.533 191.600,200.000 191.600 C 199.556 191.600,199.200 191.867,199.200 192.200 C 199.200 192.530,199.049 192.800,198.863 192.800 C 197.984 192.800,193.200 197.518,193.200 198.386 C 193.200 198.598,192.840 198.965,192.400 199.200 C 191.836 199.502,191.600 200.038,191.600 201.014 C 191.600 202.133,191.446 202.400,190.800 202.400 C 190.133 202.400,190.000 202.667,190.000 204.000 C 190.000 205.333,189.867 205.600,189.200 205.600 C 188.533 205.600,188.400 205.867,188.400 207.200 C 188.400 208.533,188.267 208.800,187.600 208.800 C 186.876 208.800,186.800 209.067,186.800 211.600 C 186.800 213.140,186.642 214.400,186.449 214.400 C 184.982 214.400,184.710 225.953,186.139 227.532 C 186.615 228.058,186.800 229.011,186.800 230.931 C 186.800 233.067,186.960 233.760,187.600 234.400 C 188.089 234.889,188.400 235.733,188.400 236.573 C 188.400 237.595,188.605 238.011,189.200 238.200 C 189.788 238.387,190.000 238.805,190.000 239.780 C 190.000 240.770,190.203 241.160,190.800 241.316 C 191.413 241.476,191.600 241.862,191.600 242.963 C 191.600 243.984,191.776 244.400,192.210 244.400 C 192.569 244.400,192.920 244.899,193.063 245.614 C 193.196 246.282,193.642 247.008,194.053 247.228 C 194.464 247.448,194.800 247.883,194.800 248.194 C 194.800 248.506,195.039 248.904,195.330 249.080 C 195.622 249.256,195.976 249.715,196.118 250.100 C 196.259 250.485,196.630 250.800,196.941 250.800 C 197.252 250.800,197.601 251.160,197.716 251.600 C 197.831 252.040,198.212 252.400,198.563 252.400 C 198.913 252.400,199.200 252.676,199.200 253.013 C 199.200 253.349,199.515 253.741,199.900 253.882 C 200.285 254.024,200.736 254.364,200.902 254.639 C 201.069 254.913,201.745 255.256,202.406 255.401 C 203.066 255.546,203.791 256.010,204.017 256.433 C 204.243 256.855,204.692 257.200,205.014 257.200 C 205.336 257.200,205.600 257.470,205.600 257.800 C 205.600 258.233,206.044 258.400,207.200 258.400 C 208.533 258.400,208.800 258.533,208.800 259.200 C 208.800 259.842,209.067 260.000,210.153 260.000 C 211.170 260.000,211.559 260.199,211.716 260.800 C 211.875 261.409,212.262 261.600,213.336 261.600 C 214.395 261.600,214.809 261.799,215.000 262.400 C 215.211 263.065,215.605 263.200,217.338 263.200 C 218.927 263.200,219.585 263.390,220.107 264.000 C 220.709 264.703,221.287 264.800,224.865 264.800 C 228.182 264.800,229.080 264.930,229.710 265.500 C 230.373 266.100,231.326 266.200,236.399 266.200 C 241.470 266.200,242.424 266.100,243.088 265.500 C 243.734 264.917,244.649 264.800,248.569 264.800 C 252.938 264.800,253.290 264.743,253.484 264.000 C 253.663 263.314,254.030 263.200,256.047 263.200 C 257.867 263.200,258.581 263.019,259.200 262.400 C 259.733 261.867,260.533 261.600,261.600 261.600 C 262.933 261.600,263.200 261.467,263.200 260.800 C 263.200 260.133,263.467 260.000,264.800 260.000 C 266.133 260.000,266.400 259.867,266.400 259.200 C 266.400 258.533,266.667 258.400,268.000 258.400 C 269.156 258.400,269.600 258.233,269.600 257.800 C 269.600 257.400,270.000 257.200,270.797 257.200 C 271.560 257.200,272.174 256.910,272.493 256.400 C 272.768 255.960,273.294 255.600,273.664 255.600 C 274.766 255.600,275.600 255.151,275.600 254.557 C 275.600 254.251,275.945 254.000,276.366 254.000 C 277.061 254.000,278.036 253.343,279.973 251.569 C 280.351 251.223,280.962 250.823,281.331 250.682 C 281.699 250.541,282.000 250.149,282.000 249.813 C 282.000 249.467,282.348 249.200,282.800 249.200 C 283.333 249.200,283.600 248.933,283.600 248.400 C 283.600 247.867,283.867 247.600,284.400 247.600 C 284.933 247.600,285.200 247.333,285.200 246.800 C 285.200 246.267,285.467 246.000,286.000 246.000 C 286.533 246.000,286.800 245.733,286.800 245.200 C 286.800 244.735,287.067 244.400,287.437 244.400 C 287.788 244.400,288.169 244.040,288.284 243.600 C 288.399 243.160,288.699 242.800,288.951 242.800 C 289.203 242.800,289.857 242.235,290.404 241.545 C 290.952 240.855,291.715 240.005,292.100 239.656 C 292.485 239.308,292.800 238.820,292.800 238.573 C 292.800 238.326,293.160 237.798,293.600 237.400 C 294.040 237.002,294.400 236.365,294.400 235.985 C 294.400 235.604,294.760 235.199,295.200 235.084 C 295.653 234.966,296.000 234.538,296.000 234.099 C 296.000 233.673,296.360 232.998,296.800 232.600 C 297.240 232.202,297.600 231.587,297.600 231.234 C 297.600 230.881,297.960 230.368,298.400 230.093 C 298.910 229.774,299.200 229.160,299.200 228.397 C 299.200 227.640,299.405 227.200,299.757 227.200 C 300.402 227.200,300.800 226.348,300.800 224.967 C 300.800 224.407,301.035 224.000,301.357 224.000 C 302.054 224.000,302.400 223.130,302.400 221.381 C 302.400 220.438,302.642 219.899,303.200 219.600 C 303.793 219.282,304.000 218.762,304.000 217.586 C 304.000 216.507,304.176 216.000,304.550 216.000 C 305.140 216.000,305.600 214.324,305.600 212.179 C 305.600 211.452,305.890 210.567,306.244 210.213 C 306.721 209.737,306.943 208.483,307.101 205.386 C 307.245 202.574,307.493 201.055,307.857 200.752 C 308.245 200.431,308.400 199.212,308.400 196.495 C 308.400 193.331,308.518 192.602,309.100 192.176 C 309.619 191.797,309.800 191.099,309.800 189.474 C 309.800 187.950,309.587 187.049,309.100 186.510 C 308.535 185.886,308.400 184.991,308.400 181.856 C 308.400 178.775,308.276 177.927,307.800 177.745 C 307.345 177.570,307.198 176.822,307.190 174.657 C 307.180 171.591,306.690 168.833,306.085 168.441 C 305.879 168.309,305.620 167.231,305.509 166.046 C 305.376 164.627,305.084 163.767,304.654 163.526 C 304.263 163.308,303.998 162.644,303.995 161.880 C 303.987 159.999,303.581 158.800,302.953 158.800 C 302.585 158.800,302.400 158.320,302.400 157.363 C 302.400 156.262,302.213 155.876,301.600 155.716 C 300.985 155.555,300.800 155.170,300.800 154.050 C 300.800 153.026,300.562 152.444,300.000 152.093 C 299.496 151.778,299.200 151.160,299.200 150.424 C 299.200 149.605,298.960 149.178,298.400 149.000 C 297.814 148.814,297.600 148.395,297.600 147.435 C 297.600 146.632,297.290 145.843,296.800 145.400 C 296.360 145.002,296.000 144.350,296.000 143.952 C 296.000 143.554,295.640 143.035,295.200 142.800 C 294.676 142.520,294.400 141.962,294.400 141.186 C 294.400 140.267,294.220 140.000,293.600 140.000 C 292.976 140.000,292.800 139.733,292.800 138.787 C 292.800 138.113,292.550 137.479,292.236 137.359 C 291.926 137.239,291.563 136.705,291.428 136.171 C 291.294 135.637,290.938 135.200,290.637 135.200 C 290.327 135.200,289.975 134.591,289.826 133.800 C 289.682 133.030,289.388 132.400,289.173 132.400 C 288.959 132.400,288.578 131.950,288.327 131.400 C 288.077 130.850,287.630 130.400,287.336 130.400 C 287.004 130.400,286.800 129.930,286.800 129.163 C 286.800 128.262,286.583 127.868,286.000 127.716 C 285.560 127.601,285.200 127.202,285.200 126.829 C 285.200 126.456,284.840 125.764,284.400 125.292 C 283.960 124.820,283.600 124.139,283.600 123.779 C 283.600 123.419,283.240 123.031,282.800 122.916 C 282.282 122.781,282.000 122.370,282.000 121.753 C 282.000 121.229,281.640 120.440,281.200 120.000 C 280.760 119.560,280.400 118.930,280.400 118.600 C 280.400 118.267,280.044 118.000,279.600 118.000 C 279.078 118.000,278.800 117.733,278.800 117.233 C 278.800 116.041,278.369 115.200,277.757 115.200 C 277.439 115.200,277.200 114.797,277.200 114.262 C 277.200 113.746,276.840 112.998,276.400 112.600 C 275.960 112.202,275.600 111.465,275.600 110.962 C 275.600 110.459,275.443 109.950,275.251 109.831 C 274.719 109.503,272.839 105.496,272.559 104.093 C 272.422 103.410,272.060 102.755,271.755 102.638 C 271.450 102.521,271.199 101.924,271.199 101.313 C 271.198 100.701,270.838 99.611,270.399 98.890 C 269.959 98.170,269.600 96.979,269.600 96.244 C 269.600 95.509,269.251 94.465,268.825 93.923 C 268.134 93.045,268.037 92.138,267.925 85.502 C 267.856 81.411,267.657 77.923,267.483 77.749 C 266.787 77.055,261.168 77.359,260.609 78.121 C 260.319 78.517,259.568 78.902,258.941 78.975 C 258.313 79.049,257.665 79.129,257.500 79.154 C 257.335 79.179,257.200 79.470,257.200 79.800 C 257.200 80.214,256.784 80.400,255.854 80.400 C 255.114 80.400,254.050 80.760,253.491 81.200 C 252.931 81.640,251.919 82.000,251.240 82.000 C 250.440 82.000,249.831 82.281,249.507 82.800 C 249.169 83.342,248.574 83.600,247.666 83.600 C 246.662 83.600,246.273 83.801,246.116 84.400 C 245.961 84.994,245.570 85.200,244.600 85.200 C 243.630 85.200,243.239 85.406,243.084 86.000 C 242.909 86.670,242.538 86.800,240.800 86.800 C 239.062 86.800,238.691 86.930,238.516 87.600 C 238.352 88.227,237.970 88.400,236.749 88.400 C 235.687 88.400,234.974 88.654,234.507 89.200 C 234.051 89.733,233.327 90.000,232.338 90.000 C 231.205 90.000,230.794 90.189,230.600 90.800 C 230.413 91.389,229.995 91.600,229.016 91.600 C 228.202 91.600,227.596 91.833,227.455 92.200 C 227.329 92.530,226.797 92.800,226.274 92.800 C 225.751 92.800,224.934 93.137,224.459 93.549 C 223.984 93.961,222.697 94.417,221.598 94.563 C 220.230 94.744,219.600 95.012,219.600 95.414 C 219.600 95.820,219.159 96.000,218.163 96.000 C 217.062 96.000,216.676 96.187,216.516 96.800 C 216.342 97.465,215.970 97.600,214.316 97.600 C 212.662 97.600,212.290 97.735,212.116 98.400 C 211.954 99.018,211.570 99.200,210.429 99.200 C 209.504 99.200,208.630 99.499,208.092 100.000 C 207.560 100.496,206.681 100.800,205.779 100.800 C 204.662 100.800,204.277 100.985,204.116 101.600 C 203.957 102.206,203.570 102.400,202.516 102.400 C 201.462 102.400,201.075 102.594,200.916 103.200 C 200.753 103.823,200.370 104.000,199.186 104.000 C 197.277 104.000,196.400 104.328,196.400 105.043 C 196.400 105.426,195.901 105.600,194.800 105.600 C 193.467 105.600,193.200 105.733,193.200 106.400 C 193.200 107.069,192.933 107.200,191.571 107.200 L 189.942 107.200 190.771 106.146 C 191.227 105.566,191.600 104.846,191.600 104.546 C 191.600 104.246,191.870 104.000,192.200 104.000 C 192.533 104.000,192.800 103.644,192.800 103.200 C 192.800 102.667,193.067 102.400,193.600 102.400 C 194.133 102.400,194.400 102.133,194.400 101.600 C 194.400 101.067,194.667 100.800,195.200 100.800 C 195.718 100.800,196.000 100.533,196.000 100.045 C 196.000 99.498,196.387 99.216,197.400 99.026 C 198.238 98.869,198.800 98.530,198.800 98.182 C 198.800 97.858,199.171 97.600,199.637 97.600 C 200.138 97.600,200.559 97.279,200.684 96.800 C 200.799 96.360,201.159 96.000,201.484 96.000 C 201.809 96.000,202.169 95.640,202.284 95.200 C 202.399 94.760,202.759 94.400,203.084 94.400 C 203.409 94.400,203.769 94.040,203.884 93.600 C 203.999 93.160,204.330 92.800,204.620 92.800 C 204.909 92.800,205.260 92.440,205.400 92.000 C 205.540 91.560,205.912 91.200,206.227 91.200 C 206.542 91.200,206.800 90.970,206.800 90.689 C 206.800 90.408,207.160 89.870,207.600 89.493 C 208.228 88.955,208.400 88.313,208.400 86.500 C 208.400 84.626,208.250 84.099,207.600 83.693 C 207.160 83.418,206.800 82.925,206.800 82.597 C 206.800 82.268,206.542 82.000,206.227 82.000 C 205.912 82.000,205.540 81.640,205.400 81.200 C 205.260 80.760,204.986 80.400,204.791 80.400 C 204.339 80.400,202.400 78.474,202.400 78.025 C 202.400 77.839,201.950 77.574,201.400 77.436 C 200.850 77.298,200.400 76.918,200.400 76.592 C 200.400 76.267,200.136 76.000,199.814 76.000 C 199.492 76.000,199.035 75.640,198.800 75.200 C 198.565 74.760,198.020 74.400,197.589 74.400 C 197.159 74.400,196.582 74.040,196.307 73.600 C 196.032 73.160,195.491 72.800,195.104 72.800 C 194.667 72.800,194.400 72.497,194.400 72.000 C 194.400 71.467,194.133 71.200,193.600 71.200 C 193.067 71.200,192.800 70.933,192.800 70.400 C 192.800 69.960,192.542 69.600,192.227 69.600 C 191.912 69.600,191.540 69.240,191.400 68.800 C 191.260 68.360,190.900 68.000,190.600 68.000 C 190.300 68.000,189.940 67.640,189.800 67.200 C 189.660 66.760,189.300 66.400,189.000 66.400 C 188.700 66.400,188.340 66.040,188.200 65.600 C 188.060 65.160,187.732 64.800,187.470 64.800 C 187.209 64.800,186.416 64.170,185.710 63.400 C 185.003 62.630,184.251 62.000,184.039 62.000 C 183.827 62.000,183.540 61.640,183.400 61.200 C 183.260 60.760,182.900 60.400,182.600 60.400 C 182.300 60.400,181.940 60.040,181.800 59.600 C 181.660 59.160,181.309 58.800,181.020 58.800 C 180.730 58.800,180.399 58.440,180.284 58.000 C 180.169 57.560,179.809 57.200,179.484 57.200 C 179.159 57.200,178.799 56.840,178.684 56.400 C 178.569 55.960,178.188 55.600,177.837 55.600 C 177.467 55.600,177.200 55.265,177.200 54.800 C 177.200 54.267,176.933 54.000,176.400 54.000 C 175.867 54.000,175.600 53.733,175.600 53.200 C 175.600 52.760,175.342 52.400,175.027 52.400 C 174.712 52.400,174.340 52.040,174.200 51.600 C 174.060 51.160,173.724 50.800,173.453 50.800 C 173.182 50.800,172.733 50.170,172.454 49.400 C 172.176 48.630,171.780 48.000,171.574 48.000 C 171.368 48.000,171.200 47.732,171.200 47.403 C 171.200 47.075,170.840 46.582,170.400 46.307 C 169.960 46.032,169.600 45.593,169.600 45.331 C 169.600 45.068,169.240 44.740,168.800 44.600 C 168.360 44.460,168.000 44.013,168.000 43.606 C 168.000 42.439,167.564 41.600,166.957 41.600 C 166.651 41.600,166.400 41.240,166.400 40.800 C 166.400 40.267,166.133 40.000,165.600 40.000 C 165.067 40.000,164.800 39.733,164.800 39.200 C 164.800 38.667,164.533 38.400,164.000 38.400 C 163.467 38.400,163.200 38.133,163.200 37.600 C 163.200 37.067,162.933 36.800,162.400 36.800 C 161.867 36.800,161.600 36.533,161.600 36.000 C 161.600 35.483,161.333 35.200,160.847 35.200 C 160.430 35.200,160.000 34.843,159.884 34.400 C 159.746 33.872,159.338 33.600,158.686 33.600 C 158.143 33.600,157.474 33.330,157.200 33.000 C 156.926 32.670,156.268 32.400,155.738 32.400 C 155.209 32.400,154.671 32.670,154.545 33.000 M159.140 40.193 C 159.988 40.959,161.202 42.354,161.838 43.293 C 169.081 53.978,176.684 62.479,188.000 72.540 C 190.970 75.181,194.930 78.735,196.800 80.438 C 198.670 82.141,200.684 83.914,201.276 84.378 C 203.849 86.393,203.438 87.072,195.032 94.714 C 186.187 102.756,184.770 105.087,184.650 111.800 L 184.600 114.600 185.886 114.543 C 186.593 114.511,187.943 114.117,188.886 113.667 C 189.829 113.217,192.670 112.005,195.200 110.972 C 197.730 109.940,200.790 108.689,202.000 108.192 C 203.210 107.695,205.820 106.635,207.800 105.835 C 209.780 105.035,211.760 104.215,212.200 104.014 C 212.640 103.812,214.350 103.086,216.000 102.400 C 217.650 101.714,219.360 100.989,219.800 100.789 C 220.240 100.588,222.670 99.585,225.200 98.560 C 230.510 96.407,233.924 95.004,242.400 91.491 C 248.329 89.034,248.973 88.762,250.260 88.175 C 250.954 87.859,251.646 87.600,251.800 87.600 C 251.954 87.600,252.646 87.345,253.340 87.033 C 262.615 82.859,262.101 82.810,262.599 87.920 C 263.419 96.338,267.778 108.308,273.297 117.298 C 274.014 118.465,274.780 119.730,275.000 120.109 C 275.220 120.488,276.472 122.463,277.783 124.499 C 288.597 141.292,287.766 139.970,290.404 144.600 C 293.640 150.282,296.500 155.917,297.000 157.600 C 297.164 158.150,297.425 158.780,297.581 159.000 C 298.488 160.279,301.104 169.228,302.433 175.600 C 304.661 186.275,302.972 206.609,299.045 216.400 C 296.709 222.226,294.213 227.527,292.877 229.504 C 292.470 230.107,291.251 231.935,290.168 233.566 C 273.574 258.572,235.545 268.513,210.200 254.470 C 183.712 239.793,184.868 200.060,212.068 190.276 C 222.520 186.516,230.776 189.229,234.966 197.800 C 236.164 200.251,236.046 204.415,234.704 207.025 C 229.591 216.968,215.049 215.624,212.215 204.946 C 211.062 200.602,210.642 200.407,207.148 202.593 C 197.131 208.859,196.973 229.473,206.855 240.997 C 222.610 259.371,251.836 255.552,263.489 233.596 C 270.768 219.882,269.285 197.777,259.772 178.200 C 257.105 172.712,256.647 171.941,251.326 164.000 C 247.942 158.951,246.718 157.202,243.760 153.200 C 242.213 151.105,240.826 149.147,237.884 144.900 C 231.423 135.573,226.088 123.638,224.788 115.600 C 223.391 106.965,224.206 107.419,216.200 110.808 C 214.220 111.646,211.430 112.786,210.000 113.341 C 207.659 114.250,204.793 115.437,202.600 116.405 C 202.160 116.599,200.630 117.216,199.200 117.775 C 181.937 124.527,183.602 122.879,182.606 134.200 C 181.975 141.375,181.796 143.323,180.817 153.600 C 180.597 155.910,180.145 160.950,179.813 164.800 C 179.482 168.650,178.933 174.860,178.594 178.600 C 176.821 198.162,176.344 203.347,175.981 207.000 C 175.763 209.200,175.408 213.340,175.192 216.200 C 174.977 219.060,174.610 223.020,174.377 225.000 C 174.143 226.980,173.693 231.480,173.377 235.000 C 173.061 238.520,172.444 244.910,172.006 249.200 C 171.568 253.490,170.937 259.880,170.603 263.400 C 170.269 266.920,169.801 271.240,169.562 273.000 C 169.324 274.760,168.888 278.450,168.595 281.200 C 168.301 283.950,167.768 288.432,167.411 291.160 C 167.053 293.888,166.858 296.375,166.978 296.687 C 167.098 296.999,166.930 298.547,166.605 300.127 C 161.278 326.015,162.461 333.348,173.500 342.874 C 176.159 345.169,176.278 344.970,168.160 351.818 C 165.717 353.878,162.661 356.877,161.367 358.482 C 158.515 362.021,156.844 363.600,155.951 363.600 C 155.261 363.600,151.574 359.825,150.427 357.945 C 149.763 356.856,148.631 355.786,141.800 349.786 C 136.295 344.951,136.262 344.798,140.060 341.752 C 147.722 335.606,149.682 329.389,147.990 316.600 C 146.773 307.409,144.704 289.848,144.197 284.400 C 143.879 280.990,143.349 275.500,143.019 272.200 C 142.454 266.547,141.303 253.757,140.392 243.000 C 140.168 240.360,139.633 234.330,139.204 229.600 C 138.775 224.870,138.232 218.660,137.998 215.800 C 137.764 212.940,137.222 206.820,136.794 202.200 C 136.366 197.580,135.824 191.730,135.591 189.200 C 135.357 186.670,134.808 181.000,134.370 176.600 C 133.932 172.200,133.406 166.440,133.201 163.800 C 132.832 159.058,131.650 148.678,131.365 147.691 C 130.970 146.322,130.896 146.345,118.200 151.799 C 116.000 152.744,111.320 154.727,107.800 156.205 C 104.280 157.684,100.612 159.232,99.649 159.646 C 96.507 160.999,95.791 160.152,96.111 155.465 C 96.321 152.397,96.520 152.122,99.400 150.918 C 100.500 150.459,103.110 149.356,105.200 148.468 C 107.290 147.579,110.800 146.112,113.000 145.207 C 115.200 144.303,117.540 143.309,118.200 142.999 C 118.860 142.689,120.570 141.983,122.000 141.430 C 131.166 137.882,130.491 138.885,130.003 129.542 C 128.902 108.443,127.350 104.925,113.598 92.354 C 107.239 86.542,107.252 86.645,112.400 82.504 C 128.239 69.763,140.872 56.891,149.000 45.210 C 153.474 38.780,156.124 37.469,159.140 40.193 M126.536 280.589 C 128.623 283.359,134.145 288.893,139.600 293.679 C 144.198 297.714,144.267 297.445,137.000 303.820 C 132.746 307.552,131.914 308.411,129.522 311.541 C 123.843 318.972,123.349 318.984,118.190 311.810 C 116.073 308.866,113.507 306.161,109.973 303.146 C 106.564 300.237,104.400 297.990,104.400 297.360 C 104.400 296.528,107.248 293.557,111.400 290.057 C 115.207 286.848,119.131 283.022,121.827 279.890 C 123.917 277.463,124.214 277.507,126.536 280.589 M190.156 279.466 C 193.183 283.034,196.067 285.920,199.600 288.917 C 209.845 297.606,209.860 296.623,199.338 305.895 C 197.780 307.267,195.163 310.147,193.521 312.295 C 188.729 318.564,188.595 318.569,184.000 312.677 C 182.350 310.561,180.010 307.950,178.800 306.876 C 167.026 296.426,167.704 297.768,172.269 293.942 C 177.535 289.529,180.520 286.634,184.478 282.100 C 188.535 277.452,188.472 277.481,190.156 279.466 " stroke="none" fill="#886848" fill-rule="evenodd"></path><path id="path1" d="M152.883 40.568 C 151.847 41.540,150.100 43.629,149.000 45.210 C 140.872 56.891,128.239 69.763,112.400 82.504 C 107.252 86.645,107.239 86.542,113.598 92.354 C 127.350 104.925,128.902 108.443,130.003 129.542 C 130.491 138.885,131.166 137.882,122.000 141.430 C 120.570 141.983,118.860 142.689,118.200 142.999 C 117.540 143.309,115.200 144.303,113.000 145.207 C 110.800 146.112,107.290 147.579,105.200 148.468 C 103.110 149.356,100.500 150.459,99.400 150.918 C 96.520 152.122,96.321 152.397,96.111 155.465 C 95.791 160.152,96.507 160.999,99.649 159.646 C 100.612 159.232,104.280 157.684,107.800 156.205 C 111.320 154.727,116.000 152.744,118.200 151.799 C 130.896 146.345,130.970 146.322,131.365 147.691 C 131.650 148.678,132.832 159.058,133.201 163.800 C 133.406 166.440,133.932 172.200,134.370 176.600 C 134.808 181.000,135.357 186.670,135.591 189.200 C 135.824 191.730,136.366 197.580,136.794 202.200 C 137.222 206.820,137.764 212.940,137.998 215.800 C 138.232 218.660,138.775 224.870,139.204 229.600 C 139.633 234.330,140.168 240.360,140.392 243.000 C 141.303 253.757,142.454 266.547,143.019 272.200 C 143.349 275.500,143.879 280.990,144.197 284.400 C 144.704 289.848,146.773 307.409,147.990 316.600 C 148.521 320.613,148.571 329.000,148.074 330.623 C 146.792 334.811,144.164 338.460,140.060 341.752 C 136.262 344.798,136.295 344.951,141.800 349.786 C 148.631 355.786,149.763 356.856,150.427 357.945 C 151.574 359.825,155.261 363.600,155.951 363.600 C 156.844 363.600,158.515 362.021,161.367 358.482 C 162.661 356.877,165.717 353.878,168.160 351.818 C 176.278 344.970,176.159 345.169,173.500 342.874 C 162.461 333.348,161.278 326.015,166.605 300.127 C 166.930 298.547,167.098 296.999,166.978 296.687 C 166.858 296.375,167.053 293.888,167.411 291.160 C 167.768 288.432,168.301 283.950,168.595 281.200 C 168.888 278.450,169.324 274.760,169.562 273.000 C 169.801 271.240,170.269 266.920,170.603 263.400 C 170.937 259.880,171.568 253.490,172.006 249.200 C 172.444 244.910,173.061 238.520,173.377 235.000 C 173.693 231.480,174.143 226.980,174.377 225.000 C 174.610 223.020,174.977 219.060,175.192 216.200 C 175.408 213.340,175.763 209.200,175.981 207.000 C 176.344 203.347,176.821 198.162,178.594 178.600 C 178.933 174.860,179.482 168.650,179.813 164.800 C 180.145 160.950,180.597 155.910,180.817 153.600 C 181.796 143.323,181.975 141.375,182.606 134.200 C 183.602 122.879,181.937 124.527,199.200 117.775 C 200.630 117.216,202.160 116.599,202.600 116.405 C 204.793 115.437,207.659 114.250,210.000 113.341 C 211.430 112.786,214.220 111.646,216.200 110.808 C 221.767 108.452,222.725 108.165,223.260 108.700 C 223.714 109.154,223.828 109.666,224.788 115.600 C 226.088 123.638,231.423 135.573,237.884 144.900 C 240.826 149.147,242.213 151.105,243.760 153.200 C 246.718 157.202,247.942 158.951,251.326 164.000 C 256.647 171.941,257.105 172.712,259.772 178.200 C 269.285 197.777,270.768 219.882,263.489 233.596 C 251.836 255.552,222.610 259.371,206.855 240.997 C 196.973 229.473,197.131 208.859,207.148 202.593 C 210.642 200.407,211.062 200.602,212.215 204.946 C 215.049 215.624,229.591 216.968,234.704 207.025 C 238.360 199.916,232.545 190.271,223.748 188.855 C 218.950 188.082,211.893 189.671,206.979 192.629 C 184.193 206.351,186.001 241.061,210.200 254.470 C 235.545 268.513,273.574 258.572,290.168 233.566 C 291.251 231.935,292.470 230.107,292.877 229.504 C 294.213 227.527,296.709 222.226,299.045 216.400 C 302.972 206.609,304.661 186.275,302.433 175.600 C 301.104 169.228,298.488 160.279,297.581 159.000 C 297.425 158.780,297.164 158.150,297.000 157.600 C 296.500 155.917,293.640 150.282,290.404 144.600 C 287.766 139.970,288.597 141.292,277.783 124.499 C 276.472 122.463,275.220 120.488,275.000 120.109 C 274.780 119.730,274.014 118.465,273.297 117.298 C 267.778 108.308,263.419 96.338,262.599 87.920 C 262.101 82.810,262.615 82.859,253.340 87.033 C 252.646 87.345,251.954 87.600,251.800 87.600 C 251.646 87.600,250.954 87.859,250.260 88.175 C 248.973 88.762,248.329 89.034,242.400 91.491 C 233.924 95.004,230.510 96.407,225.200 98.560 C 222.670 99.585,220.240 100.588,219.800 100.789 C 219.360 100.989,217.650 101.714,216.000 102.400 C 214.350 103.086,212.640 103.812,212.200 104.014 C 211.760 104.215,209.780 105.035,207.800 105.835 C 205.820 106.635,203.210 107.695,202.000 108.192 C 200.790 108.689,197.730 109.940,195.200 110.972 C 192.670 112.005,189.829 113.217,188.886 113.667 C 187.943 114.117,186.593 114.511,185.886 114.543 L 184.600 114.600 184.650 111.800 C 184.770 105.087,186.187 102.756,195.032 94.714 C 203.438 87.072,203.849 86.393,201.276 84.378 C 200.684 83.914,198.670 82.141,196.800 80.438 C 194.930 78.735,190.970 75.181,188.000 72.540 C 176.684 62.479,169.081 53.978,161.838 43.293 C 158.531 38.414,155.998 37.643,152.883 40.568 M121.827 279.890 C 119.131 283.022,115.207 286.848,111.400 290.057 C 107.248 293.557,104.400 296.528,104.400 297.360 C 104.400 297.990,106.564 300.237,109.973 303.146 C 113.507 306.161,116.073 308.866,118.190 311.810 C 123.349 318.984,123.843 318.972,129.522 311.541 C 131.914 308.411,132.746 307.552,137.000 303.820 C 144.267 297.445,144.198 297.714,139.600 293.679 C 134.145 288.893,128.623 283.359,126.536 280.589 C 124.214 277.507,123.917 277.463,121.827 279.890 M184.478 282.100 C 180.520 286.634,177.535 289.529,172.269 293.942 C 167.704 297.768,167.026 296.426,178.800 306.876 C 180.010 307.950,182.350 310.561,184.000 312.677 C 188.595 318.569,188.729 318.564,193.521 312.295 C 195.163 310.147,197.780 307.267,199.338 305.895 C 209.860 296.623,209.845 297.606,199.600 288.917 C 196.067 285.920,193.183 283.034,190.156 279.466 C 188.472 277.481,188.535 277.452,184.478 282.100 " stroke="none" fill="#fbebbb" fill-rule="evenodd"></path></g></svg>