<svg id="svg" version="1.1" xmlns="http://www.w3.org/2000/svg" xmlns:xlink="http://www.w3.org/1999/xlink" width="400" height="400" viewBox="0, 0, 400,400"><g id="svgg"><path id="path0" d="M180.778 2.296 C 179.580 3.559,178.224 5.370,177.764 6.321 C 177.248 7.389,174.034 10.997,169.364 15.753 C 148.387 37.113,122.946 63.273,120.760 65.729 C 120.012 66.569,118.976 68.009,118.457 68.929 C 117.557 70.525,113.899 74.494,109.232 78.936 C 106.322 81.707,106.254 81.778,102.679 85.710 C 97.513 91.394,96.271 93.469,95.486 97.722 C 95.235 99.085,94.618 100.810,94.115 101.556 C 92.843 103.441,92.870 106.201,94.179 108.130 C 94.793 109.036,95.254 110.434,95.418 111.886 L 95.679 114.200 88.740 114.206 C 81.437 114.212,80.453 114.416,78.200 116.397 C 77.760 116.783,76.499 117.392,75.398 117.749 C 73.669 118.311,72.417 119.374,66.198 125.564 C 51.252 140.442,31.777 160.681,30.440 162.724 C 28.486 165.711,26.997 167.398,21.376 172.998 C 12.349 181.989,8.686 186.326,8.137 188.676 C 7.882 189.765,7.226 191.316,6.679 192.122 C 4.141 195.861,4.190 207.932,6.755 211.150 C 7.216 211.727,7.849 212.740,8.162 213.400 C 8.475 214.060,9.933 215.770,11.403 217.200 C 12.972 218.727,14.458 220.626,15.004 221.800 C 15.686 223.271,17.698 225.545,22.610 230.400 C 26.283 234.030,29.708 237.543,30.221 238.207 C 30.734 238.871,36.699 245.035,43.477 251.903 C 50.255 258.772,59.490 268.188,64.000 272.826 C 74.093 283.207,76.964 285.344,81.723 286.018 C 83.119 286.215,85.058 286.738,86.031 287.180 C 88.283 288.202,90.009 288.207,92.094 287.200 C 95.648 285.483,96.916 288.067,94.313 291.722 C 93.851 292.371,93.390 293.763,93.289 294.815 C 93.115 296.621,93.271 297.175,94.683 299.800 C 94.920 300.240,95.408 301.932,95.766 303.560 C 96.447 306.650,99.366 312.003,100.880 312.937 C 101.675 313.428,105.362 318.220,105.657 319.148 C 105.822 319.664,108.616 322.584,126.200 340.618 C 130.160 344.679,137.000 351.707,141.400 356.236 C 145.800 360.764,152.235 367.332,155.700 370.829 C 159.165 374.327,162.000 377.361,162.000 377.570 C 162.000 378.418,166.201 383.321,171.642 388.824 C 174.809 392.027,178.480 395.851,179.800 397.322 L 182.200 399.995 198.815 399.998 L 215.430 400.000 222.215 392.999 C 225.947 389.149,233.755 381.184,239.567 375.299 C 245.379 369.415,251.124 363.520,252.334 362.200 C 253.544 360.880,257.650 356.607,261.457 352.705 C 265.454 348.608,268.765 344.855,269.290 343.825 C 269.832 342.762,273.272 338.913,277.800 334.303 C 281.980 330.048,291.610 320.200,299.200 312.419 C 306.790 304.639,315.786 295.419,319.192 291.931 C 322.597 288.443,325.638 285.096,325.948 284.494 C 327.030 282.399,328.982 280.159,335.440 273.600 C 339.015 269.970,343.888 264.987,346.270 262.527 C 348.651 260.067,354.920 253.632,360.200 248.227 C 365.480 242.822,373.102 235.015,377.139 230.878 C 381.723 226.178,384.801 222.687,385.339 221.575 C 385.812 220.596,387.302 218.716,388.650 217.397 C 395.427 210.766,397.654 198.816,393.385 191.989 C 392.900 191.214,392.368 189.954,392.203 189.189 C 391.536 186.093,391.773 186.384,380.286 174.600 C 372.331 166.440,369.600 163.338,369.600 162.463 C 369.600 162.160,366.675 158.934,363.100 155.294 C 359.525 151.654,355.970 148.010,355.200 147.194 C 352.834 144.689,326.589 117.821,319.700 110.852 C 316.125 107.236,313.200 104.112,313.200 103.910 C 313.200 103.023,310.378 99.598,306.064 95.251 C 303.499 92.666,299.690 88.677,297.600 86.386 C 295.510 84.096,292.829 81.317,291.643 80.211 C 290.456 79.105,288.476 77.140,287.243 75.844 C 286.009 74.548,281.670 70.097,277.600 65.953 C 257.943 45.939,254.698 42.507,253.868 40.855 C 253.359 39.840,249.899 35.934,245.596 31.515 C 241.528 27.337,235.230 20.863,231.600 17.129 C 227.970 13.394,222.668 8.012,219.818 5.169 L 214.637 0.000 198.796 0.000 L 182.956 0.000 180.778 2.296 M202.555 17.130 C 203.410 17.710,205.390 19.615,206.955 21.363 C 208.520 23.110,212.860 27.730,216.600 31.628 C 220.340 35.526,227.090 42.621,231.600 47.394 C 236.110 52.166,242.590 59.004,246.000 62.589 C 249.410 66.173,255.980 73.105,260.600 77.992 C 265.220 82.880,272.060 90.076,275.800 93.983 C 279.540 97.891,286.290 105.016,290.800 109.816 C 295.310 114.617,301.610 121.267,304.800 124.595 C 307.990 127.923,314.650 134.939,319.600 140.187 C 324.550 145.436,331.300 152.559,334.600 156.018 C 337.900 159.477,344.470 166.395,349.200 171.392 C 353.930 176.389,361.164 183.975,365.276 188.250 C 373.315 196.607,375.045 199.074,374.562 201.490 C 374.248 203.060,370.211 207.834,362.253 216.046 C 358.924 219.482,352.510 226.205,348.000 230.987 C 339.295 240.216,330.649 249.289,319.152 261.261 C 315.275 265.297,310.806 270.091,309.219 271.912 C 307.632 273.734,305.902 275.508,305.375 275.853 C 304.847 276.199,300.983 280.245,296.787 284.845 C 292.591 289.445,288.755 293.473,288.263 293.796 C 287.770 294.119,286.319 295.602,285.039 297.091 C 282.828 299.664,275.797 307.092,262.000 321.431 C 258.590 324.975,252.110 331.800,247.600 336.596 C 243.090 341.393,236.430 348.418,232.800 352.207 C 229.170 355.997,222.420 363.108,217.800 368.010 C 199.277 387.663,199.466 387.543,194.865 382.670 C 193.789 381.532,190.230 377.801,186.955 374.380 C 183.680 370.959,176.860 363.769,171.800 358.403 C 166.740 353.037,159.810 345.728,156.400 342.161 C 152.990 338.594,146.420 331.677,141.800 326.791 C 137.180 321.904,130.604 315.002,127.186 311.453 C 116.593 300.452,114.799 298.186,114.803 295.811 C 114.807 293.394,114.824 293.373,131.200 276.221 C 134.830 272.420,141.580 265.300,146.200 260.401 C 150.820 255.501,157.480 248.474,161.000 244.785 C 164.520 241.097,171.090 234.173,175.600 229.398 C 180.110 224.624,186.866 217.541,190.613 213.659 C 198.770 205.208,201.600 201.862,201.600 200.668 C 201.600 199.079,198.719 195.601,189.224 185.726 C 185.801 182.166,179.400 175.451,175.000 170.804 C 170.600 166.157,163.850 159.055,160.000 155.022 C 156.150 150.989,149.400 143.863,145.000 139.187 C 140.600 134.510,134.120 127.677,130.600 124.003 C 111.239 103.792,112.069 105.995,120.353 96.800 C 122.434 94.490,125.771 90.972,127.768 88.983 C 129.766 86.993,135.360 81.168,140.200 76.037 C 145.040 70.906,151.790 63.782,155.200 60.206 C 158.610 56.630,165.090 49.788,169.600 45.003 C 174.110 40.217,180.950 33.036,184.800 29.045 C 188.650 25.054,192.774 20.645,193.964 19.248 C 197.259 15.380,199.252 14.889,202.555 17.130 M91.073 135.354 C 92.541 136.590,99.485 143.648,105.482 150.000 C 117.188 162.400,131.891 177.878,137.200 183.391 C 149.659 196.329,151.521 198.764,151.016 201.456 C 150.728 202.989,147.002 207.298,136.112 218.686 C 125.114 230.188,118.140 237.524,109.000 247.209 C 86.682 270.856,89.310 269.870,78.600 258.621 C 75.300 255.155,69.630 249.204,66.000 245.396 C 62.370 241.589,55.710 234.566,51.200 229.790 C 46.690 225.014,40.108 218.113,36.574 214.454 C 22.198 199.568,22.124 201.352,37.779 185.158 C 41.311 181.505,47.890 174.598,52.400 169.810 C 56.910 165.022,63.480 158.088,67.000 154.400 C 70.520 150.713,75.740 145.214,78.600 142.181 C 85.891 134.449,88.378 133.087,91.073 135.354 M174.000 201.200 C 174.000 202.262,172.909 203.046,172.718 202.121 C 172.428 200.716,172.842 199.537,173.448 200.040 C 173.752 200.292,174.000 200.814,174.000 201.200 " stroke="none" fill="#f9f9f9" fill-rule="evenodd"></path><path id="path1" d="M197.364 16.164 C 196.685 16.463,195.155 17.851,193.964 19.248 C 192.774 20.645,188.650 25.054,184.800 29.045 C 180.950 33.036,174.110 40.217,169.600 45.003 C 165.090 49.788,158.610 56.630,155.200 60.206 C 151.790 63.782,145.040 70.906,140.200 76.037 C 135.360 81.168,129.766 86.993,127.768 88.983 C 125.771 90.972,122.434 94.490,120.353 96.800 C 112.069 105.995,111.239 103.792,130.600 124.003 C 134.120 127.677,140.600 134.510,145.000 139.187 C 149.400 143.863,156.150 150.989,160.000 155.022 C 163.850 159.055,170.600 166.157,175.000 170.804 C 179.400 175.451,185.801 182.166,189.224 185.726 C 198.719 195.601,201.600 199.079,201.600 200.668 C 201.600 201.862,198.770 205.208,190.613 213.659 C 186.866 217.541,180.110 224.624,175.600 229.398 C 171.090 234.173,164.520 241.097,161.000 244.785 C 157.480 248.474,150.820 255.501,146.200 260.401 C 141.580 265.300,134.830 272.420,131.200 276.221 C 114.824 293.373,114.807 293.394,114.803 295.811 C 114.799 298.186,116.593 300.452,127.186 311.453 C 130.604 315.002,137.180 321.904,141.800 326.791 C 146.420 331.677,152.990 338.594,156.400 342.161 C 159.810 345.728,166.740 353.037,171.800 358.403 C 176.860 363.769,183.680 370.959,186.955 374.380 C 190.230 377.801,193.789 381.532,194.865 382.670 C 199.466 387.543,199.277 387.663,217.800 368.010 C 222.420 363.108,229.170 355.997,232.800 352.207 C 236.430 348.418,243.090 341.393,247.600 336.596 C 252.110 331.800,258.590 324.975,262.000 321.431 C 275.797 307.092,282.828 299.664,285.039 297.091 C 286.319 295.602,287.770 294.119,288.263 293.796 C 288.755 293.473,292.591 289.445,296.787 284.845 C 300.983 280.245,304.847 276.199,305.375 275.853 C 305.902 275.508,307.632 273.734,309.219 271.912 C 310.806 270.091,315.275 265.297,319.152 261.261 C 330.649 249.289,339.295 240.216,348.000 230.987 C 352.510 226.205,358.924 219.482,362.253 216.046 C 370.211 207.834,374.248 203.060,374.562 201.490 C 375.045 199.074,373.315 196.607,365.276 188.250 C 361.164 183.975,353.930 176.389,349.200 171.392 C 344.470 166.395,337.900 159.477,334.600 156.018 C 331.300 152.559,324.550 145.436,319.600 140.187 C 314.650 134.939,307.990 127.923,304.800 124.595 C 301.610 121.267,295.310 114.617,290.800 109.816 C 286.290 105.016,279.540 97.891,275.800 93.983 C 272.060 90.076,265.220 82.880,260.600 77.992 C 255.980 73.105,249.410 66.173,246.000 62.589 C 242.590 59.004,236.110 52.166,231.600 47.394 C 227.090 42.621,220.340 35.526,216.600 31.628 C 212.860 27.730,208.520 23.110,206.955 21.363 C 202.543 16.435,199.949 15.029,197.364 16.164 M85.578 135.533 C 84.600 136.156,81.460 139.148,78.600 142.181 C 75.740 145.214,70.520 150.713,67.000 154.400 C 63.480 158.088,56.910 165.022,52.400 169.810 C 47.890 174.598,41.311 181.505,37.779 185.158 C 22.124 201.352,22.198 199.568,36.574 214.454 C 40.108 218.113,46.690 225.014,51.200 229.790 C 55.710 234.566,62.370 241.589,66.000 245.396 C 69.630 249.204,75.300 255.155,78.600 258.621 C 89.310 269.870,86.682 270.856,109.000 247.209 C 118.140 237.524,125.114 230.188,136.112 218.686 C 147.002 207.298,150.728 202.989,151.016 201.456 C 151.521 198.764,149.659 196.329,137.200 183.391 C 131.891 177.878,117.188 162.400,105.482 150.000 C 99.485 143.648,92.541 136.590,91.073 135.354 C 89.550 134.073,87.779 134.131,85.578 135.533 " stroke="none" fill="#0c0c0c" fill-rule="evenodd"></path></g></svg>